# xmcd CD database file
#
# Track frame offsets:
#	182
#	19032
#	38527
#	66815
#	86650
#	111060
#	132052
#	149510
#	175382
#	188557
#	212217
#	232772
#	247517
#
# Disc length: 3618 seconds
#
# Revision: 3
# Processed by: cddbd v1.5.1PL0 Copyright (c) Steve Scherf et al.
# Submitted via: CDex 1.51
#
DISCID=a10e200d
DTITLE=Al Kooper - Rekooperation
DYEAR=1994
DGENRE=Jazz+Funk
TTITLE0=Downtime
TTITLE1=After The Lights Go Down Low
TTITLE2=When The Spell Is Broken
TTITLE3=How 'My Ever Going To Get Over You
TTITLE4=Sneakin Round The Barnyard
TTITLE5=Soul Twist-Ed
TTITLE6=Lookin' For Clues
TTITLE7=Honky Tonk
TTITLE8=Clean Up Woman
TTITLE9=Don't Be Cruel
TTITLE10=Alvino Johnson's Shuffle
TTITLE11=Johnny B. Goode
TTITLE12=I Wanna Little Girl
EXTD=YEAR: 1994
EXTT0=
EXTT1=
EXTT2=
EXTT3=
EXTT4=
EXTT5=
EXTT6=
EXTT7=
EXTT8=
EXTT9=
EXTT10=
EXTT11=
EXTT12=
PLAYORDER=
